<?xml version="1.0" encoding="UTF-8"?>
<svg xmlns="http://www.w3.org/2000/svg" xmlns:xlink="http://www.w3.org/1999/xlink" width="192px" height="192px" viewBox="0 0 192 192" version="1.1">
<defs>
<linearGradient id="linear0" gradientUnits="userSpaceOnUse" x1="0" y1="0" x2="1" y2="1" gradientTransform="matrix(192,0,0,192,0,0)">
<stop offset="0" style="stop-color:rgb(11.372549%,30.588235%,84.705882%);stop-opacity:1;"/>
<stop offset="1" style="stop-color:rgb(6.27451%,72.54902%,50.588235%);stop-opacity:1;"/>
</linearGradient>
<linearGradient id="linear1" gradientUnits="userSpaceOnUse" x1="0" y1="0" x2="0" y2="1" gradientTransform="matrix(192,0,0,96,0,0)">
<stop offset="0" style="stop-color:rgb(100%,100%,100%);stop-opacity:0.180392;"/>
<stop offset="1" style="stop-color:rgb(100%,100%,100%);stop-opacity:0;"/>
</linearGradient>
</defs>
<g id="surface1">
<path style=" stroke:none;fill-rule:nonzero;fill:url(#linear0);" d="M 42 0 L 150 0 C 173.195312 0 192 18.804688 192 42 L 192 150 C 192 173.195312 173.195312 192 150 192 L 42 192 C 18.804688 192 0 173.195312 0 150 L 0 42 C 0 18.804688 18.804688 0 42 0 Z M 42 0 "/>
<path style=" stroke:none;fill-rule:nonzero;fill:url(#linear1);" d="M 42 0 L 150 0 C 173.195312 0 192 18.804688 192 42 L 192 54 C 192 77.195312 173.195312 96 150 96 L 42 96 C 18.804688 96 0 77.195312 0 54 L 0 42 C 0 18.804688 18.804688 0 42 0 Z M 42 0 "/>
<path style="fill:none;stroke-width:2.5;stroke-linecap:butt;stroke-linejoin:miter;stroke:rgb(100%,100%,100%);stroke-opacity:0.898039;stroke-miterlimit:4;" d="M 20 14 L 44 14 C 46.209635 14 48 15.790365 48 18 L 48 46 C 48 48.209635 46.209635 50 44 50 L 20 50 C 17.790365 50 16 48.209635 16 46 L 16 18 C 16 15.790365 17.790365 14 20 14 Z M 20 14 " transform="matrix(3,0,0,3,0,0)"/>
<path style="fill:none;stroke-width:2.5;stroke-linecap:butt;stroke-linejoin:miter;stroke:rgb(100%,100%,100%);stroke-opacity:0.898039;stroke-miterlimit:4;" d="M 27 10 L 37 10 C 38.65625 10 40 11.34375 40 13 L 40 15 C 40 16.65625 38.65625 18 37 18 L 27 18 C 25.34375 18 24 16.65625 24 15 L 24 13 C 24 11.34375 25.34375 10 27 10 Z M 27 10 " transform="matrix(3,0,0,3,0,0)"/>
<path style=" stroke:none;fill-rule:nonzero;fill:rgb(11.372549%,30.588236%,84.705883%);fill-opacity:1;" d="M 84 34.5 L 108 34.5 C 111.3125 34.5 114 37.1875 114 40.5 L 114 43.5 C 114 46.8125 111.3125 49.5 108 49.5 L 84 49.5 C 80.6875 49.5 78 46.8125 78 43.5 L 78 40.5 C 78 37.1875 80.6875 34.5 84 34.5 Z M 84 34.5 "/>
<path style="fill:none;stroke-width:2;stroke-linecap:round;stroke-linejoin:miter;stroke:rgb(100%,100%,100%);stroke-opacity:0.501961;stroke-miterlimit:4;" d="M 22 27 L 42 27 " transform="matrix(3,0,0,3,0,0)"/>
<path style="fill:none;stroke-width:2;stroke-linecap:round;stroke-linejoin:miter;stroke:rgb(100%,100%,100%);stroke-opacity:0.501961;stroke-miterlimit:4;" d="M 22 33 L 38 33 " transform="matrix(3,0,0,3,0,0)"/>
<path style=" stroke:none;fill-rule:nonzero;fill:rgb(6.27451%,72.549021%,50.588238%);fill-opacity:1;" d="M 138 126 C 138 112.746094 127.253906 102 114 102 C 100.746094 102 90 112.746094 90 126 C 90 139.253906 100.746094 150 114 150 C 127.253906 150 138 139.253906 138 126 Z M 138 126 "/>
<path style="fill:none;stroke-width:2.2;stroke-linecap:round;stroke-linejoin:round;stroke:rgb(100%,100%,100%);stroke-opacity:1;stroke-miterlimit:4;" d="M 34 42 L 37 45 L 42 39 " transform="matrix(3,0,0,3,0,0)"/>
</g>
</svg>
