<?xml version="1.0" encoding="UTF-8"?>
<svg xmlns="http://www.w3.org/2000/svg" xmlns:xlink="http://www.w3.org/1999/xlink" width="512px" height="512px" viewBox="0 0 512 512" version="1.1">
<defs>
<linearGradient id="linear0" gradientUnits="userSpaceOnUse" x1="0" y1="0" x2="1" y2="1" gradientTransform="matrix(512,0,0,512,0,0)">
<stop offset="0" style="stop-color:rgb(11.372549%,30.588235%,84.705882%);stop-opacity:1;"/>
<stop offset="1" style="stop-color:rgb(6.27451%,72.54902%,50.588235%);stop-opacity:1;"/>
</linearGradient>
<linearGradient id="linear1" gradientUnits="userSpaceOnUse" x1="0" y1="0" x2="0" y2="1" gradientTransform="matrix(512,0,0,256,0,0)">
<stop offset="0" style="stop-color:rgb(100%,100%,100%);stop-opacity:0.180392;"/>
<stop offset="1" style="stop-color:rgb(100%,100%,100%);stop-opacity:0;"/>
</linearGradient>
</defs>
<g id="surface1">
<path style=" stroke:none;fill-rule:nonzero;fill:url(#linear0);" d="M 112 0 L 400 0 C 461.855469 0 512 50.144531 512 112 L 512 400 C 512 461.855469 461.855469 512 400 512 L 112 512 C 50.144531 512 0 461.855469 0 400 L 0 112 C 0 50.144531 50.144531 0 112 0 Z M 112 0 "/>
<path style=" stroke:none;fill-rule:nonzero;fill:url(#linear1);" d="M 112 0 L 400 0 C 461.855469 0 512 50.144531 512 112 L 512 144 C 512 205.855469 461.855469 256 400 256 L 112 256 C 50.144531 256 0 205.855469 0 144 L 0 112 C 0 50.144531 50.144531 0 112 0 Z M 112 0 "/>
<path style="fill:none;stroke-width:2.5;stroke-linecap:butt;stroke-linejoin:miter;stroke:rgb(100%,100%,100%);stroke-opacity:0.898039;stroke-miterlimit:4;" d="M 20 14 L 44 14 C 46.209473 14 48 15.790527 48 18 L 48 46 C 48 48.209473 46.209473 50 44 50 L 20 50 C 17.790527 50 16 48.209473 16 46 L 16 18 C 16 15.790527 17.790527 14 20 14 Z M 20 14 " transform="matrix(8,0,0,8,0,0)"/>
<path style="fill:none;stroke-width:2.5;stroke-linecap:butt;stroke-linejoin:miter;stroke:rgb(100%,100%,100%);stroke-opacity:0.898039;stroke-miterlimit:4;" d="M 27 10 L 37 10 C 38.65625 10 40 11.34375 40 13 L 40 15 C 40 16.65625 38.65625 18 37 18 L 27 18 C 25.34375 18 24 16.65625 24 15 L 24 13 C 24 11.34375 25.34375 10 27 10 Z M 27 10 " transform="matrix(8,0,0,8,0,0)"/>
<path style=" stroke:none;fill-rule:nonzero;fill:rgb(11.372549%,30.588236%,84.705883%);fill-opacity:1;" d="M 224 92 L 288 92 C 296.832031 92 304 99.167969 304 108 L 304 116 C 304 124.832031 296.832031 132 288 132 L 224 132 C 215.167969 132 208 124.832031 208 116 L 208 108 C 208 99.167969 215.167969 92 224 92 Z M 224 92 "/>
<path style="fill:none;stroke-width:2;stroke-linecap:round;stroke-linejoin:miter;stroke:rgb(100%,100%,100%);stroke-opacity:0.501961;stroke-miterlimit:4;" d="M 22 27 L 42 27 " transform="matrix(8,0,0,8,0,0)"/>
<path style="fill:none;stroke-width:2;stroke-linecap:round;stroke-linejoin:miter;stroke:rgb(100%,100%,100%);stroke-opacity:0.501961;stroke-miterlimit:4;" d="M 22 33 L 38 33 " transform="matrix(8,0,0,8,0,0)"/>
<path style=" stroke:none;fill-rule:nonzero;fill:rgb(6.27451%,72.549021%,50.588238%);fill-opacity:1;" d="M 368 336 C 368 300.65625 339.34375 272 304 272 C 268.65625 272 240 300.65625 240 336 C 240 371.34375 268.65625 400 304 400 C 339.34375 400 368 371.34375 368 336 Z M 368 336 "/>
<path style="fill:none;stroke-width:2.2;stroke-linecap:round;stroke-linejoin:round;stroke:rgb(100%,100%,100%);stroke-opacity:1;stroke-miterlimit:4;" d="M 34 42 L 37 45 L 42 39 " transform="matrix(8,0,0,8,0,0)"/>
</g>
</svg>
